<svg width="424" height="585" viewBox="0 0 424 585" fill="none" xmlns="http://www.w3.org/2000/svg">
<path d="M307.059 270.128C307.059 270.128 285.489 269.367 274.9 293.474C264.311 317.581 241.957 441.116 241.957 441.116L233.722 444.254C233.722 444.254 252.155 356.016 258.822 325.426C265.489 294.836 279.607 271.697 292.549 266.207C305.491 260.717 307.059 270.128 307.059 270.128Z" fill="#2E4C3C"/>
<path d="M269.802 256.715C269.802 256.715 269.438 251.644 261.777 251.67C254.115 251.695 235.95 269.342 226.209 312.09C216.467 354.836 218.428 447.39 218.428 447.39H223.918C223.918 447.39 223.134 362.288 233.33 323.071C243.526 283.854 249.8 251.931 269.802 256.715Z" fill="#2E4C3C"/>
<path d="M214.246 69.3728C214.246 69.3728 205.422 58.7848 203.069 79.3728C200.715 99.9628 208.11 368.209 208.11 368.209H217.775L210.191 82.9118L214.246 69.3728Z" fill="#397F5B"/>
<path d="M124.666 167.5C124.666 167.5 150.831 162.241 175.771 213.839C200.711 265.439 226.637 460.225 226.637 460.225H214.9C214.9 460.225 210.406 380.566 194.066 305.747C177.727 230.929 166.541 191.975 133.031 173.249C133.031 173.25 119.141 170.18 124.666 167.5Z" fill="#397F5B"/>
<path d="M108.414 276.899C109.219 273.018 125.751 254.545 140.319 261.604C154.886 268.663 167.302 260.749 187.272 332.356C207.242 403.963 221.36 453.965 221.36 453.965H213.532C213.532 453.965 180.084 329.119 171.261 306.766C162.438 284.412 144.803 274.383 129.724 272.911C114.645 271.436 108.414 276.899 108.414 276.899Z" fill="#255B3E"/>
<path d="M321.308 279.748C321.308 279.748 334.788 289.584 344.987 290.312C355.187 291.041 360.288 295.412 360.288 295.412C360.288 295.412 359.194 295.889 360.288 303.664C361.38 311.44 365.022 317.269 360.288 322.733C355.553 328.197 352.637 330.747 351.545 327.468C350.451 324.191 347.722 317.997 341.983 320.183C336.243 322.369 340.616 325.648 344.987 327.105C349.359 328.562 351.179 332.207 350.816 335.484C350.451 338.761 347.721 349.328 341.983 356.613C336.243 363.898 323.129 374.463 323.129 374.463C323.129 374.463 322.037 374.826 321.309 371.185C320.581 367.544 319.851 355.885 314.387 351.149C308.922 346.414 298.358 345.685 297.265 342.77C296.172 339.856 308.195 337.306 309.652 332.57C311.109 327.835 305.645 326.014 302.73 329.657C299.815 333.299 294.35 338.399 292.53 336.942C290.709 335.485 288.887 325.649 287.795 324.921C286.701 324.192 280.509 318.364 277.958 313.628C275.408 308.892 264.114 304.157 270.673 289.948C277.228 275.74 309.651 260.076 321.308 279.748Z" fill="#207143"/>
<path d="M267.638 228.809C267.638 228.809 263.817 223.079 263.605 209.278C263.393 195.479 260.845 192.317 254.688 186.15C248.532 179.982 237.917 181.68 237.917 181.68C237.917 181.68 237.705 183.189 232.609 186.15C227.514 189.11 214.564 191.659 210.956 198.027C207.348 204.395 204.587 208.641 204.587 208.641C204.587 208.641 208.409 212.887 217.75 212.25C227.09 211.613 237.917 215.857 238.342 223.713C238.766 231.568 228.153 222.227 220.51 218.193C212.867 214.159 200.979 210.552 196.733 213.949C192.487 217.345 190.576 227.322 186.331 233.903C182.086 240.484 181.024 245.58 183.147 253.433C183.147 253.433 194.398 244.942 204.587 243.668C214.777 242.394 220.721 247.702 216.688 250.249C212.655 252.796 209.895 249.612 200.13 250.886C190.364 252.16 179.112 262.775 179.112 262.775C179.112 262.775 173.592 268.931 174.229 277.847C174.867 286.764 174.178 292.495 174.178 292.495C174.178 292.495 177.413 293.345 184.844 286.975C192.274 280.606 201.615 276.149 204.586 280.395C207.559 284.639 198.856 286.763 193.336 287.612C187.816 288.462 177.626 295.043 178.051 300.137C178.475 305.233 180.81 318.606 183.781 324.125C183.781 324.125 187.603 320.305 194.184 314.36C200.764 308.416 202.887 309.902 203.949 313.723C205.011 317.544 196.307 325.187 192.273 327.734C188.24 330.282 186.966 336.651 189.938 343.869C192.91 351.087 197.792 367.646 197.792 367.646C197.792 367.646 210.529 362.126 217.959 359.578C225.39 357.031 227.938 353.422 225.603 347.266C223.268 341.11 220.508 333.467 223.692 330.92C226.877 328.371 230.061 333.467 229.212 339.199C228.363 344.929 230.91 350.238 230.91 350.238C230.91 350.238 238.341 345.992 244.073 345.567C249.803 345.142 262.33 337.076 265.514 332.617C268.698 328.159 262.117 319.456 257.446 315.635C252.776 311.813 245.557 303.11 250.866 299.075C256.173 295.042 258.508 302.047 259.145 307.779C259.782 313.511 267.423 325.611 274.004 330.494C274.004 330.494 280.798 330.919 285.681 324.125C290.564 317.332 292.899 315.635 301.391 312.238C309.882 308.841 309.668 302.472 307.546 298.65C305.424 294.83 286.317 289.31 282.072 278.908C277.826 268.506 282.283 266.17 284.619 269.779C286.955 273.388 289.502 286.763 297.569 288.248C305.635 289.734 309.67 289.31 312.429 293.344C315.188 297.378 322.619 296.53 325.59 292.707C328.562 288.886 327.077 265.534 328.139 257.043C329.201 248.551 318.797 224.773 305.848 220.953C292.898 217.131 283.771 222.651 278.25 226.473C272.733 230.296 269.762 230.508 267.638 228.809Z" fill="#255B3E"/>
<path d="M124.666 167.5C124.666 167.5 131.868 158.809 130.627 149.123C129.386 139.438 120.444 141.426 113.987 136.459C107.531 131.492 102.068 131.492 102.068 131.492C102.068 131.492 106.786 140.432 107.283 149.496C107.779 158.561 104.054 161.044 102.068 156.574C100.081 152.104 100.827 143.165 97.845 136.955C94.866 130.747 88.16 130.249 88.16 130.249C88.16 130.249 85.678 134.72 77.234 136.706C68.79 138.694 56.373 141.922 53.144 147.386C49.916 152.85 49.916 152.85 49.916 152.85C49.916 152.85 55.131 152.601 61.338 159.554C67.548 166.508 67.053 171.722 63.326 169.488C59.6 167.254 62.332 162.783 54.635 158.809C46.936 154.836 38.989 156.079 38.989 156.079C38.989 156.079 37.499 158.562 33.029 164.77C28.559 170.978 19.62 175.2 16.391 180.415C13.162 185.63 12.665 188.113 12.665 188.113C12.665 188.113 15.148 185.382 18.129 188.113C21.108 190.845 17.88 193.329 16.142 191.839C14.404 190.348 13.908 191.493 12.665 192.285C11.424 193.08 10.431 198.543 6.45599 200.531C2.48299 202.517 0 206.739 0 206.739C0 206.739 15.396 209.47 16.391 214.438C16.391 214.438 22.103 211.707 26.325 204.752C30.547 197.798 33.029 196.557 35.264 199.785C37.499 203.013 32.284 206.489 27.815 209.47C23.343 212.45 23.343 215.679 23.343 215.679C23.343 215.679 29.553 217.169 36.505 220.397C43.459 223.626 54.386 221.391 55.131 221.64C55.875 221.887 60.098 218.66 60.098 212.451C60.098 206.242 57.615 198.544 61.587 196.806C65.561 195.067 65.065 200.53 63.822 204.006C62.581 207.484 62.226 218.714 65.384 222.163C65.384 222.163 71.769 218.659 79.467 220.645C87.165 222.632 95.609 221.141 99.086 215.678C102.562 210.215 99.831 200.778 99.581 198.295C99.334 195.81 99.085 189.354 103.059 189.354C107.033 189.354 108.272 196.993 104.549 203.013C100.824 209.035 102.066 213.195 103.059 217.665C103.059 217.665 117.462 215.181 123.67 212.698C129.88 210.216 138.817 205.248 137.081 198.543C135.343 191.839 137.022 185.879 137.301 182.65C137.58 179.421 132.614 169.487 124.666 167.5Z" fill="#2E4C3C"/>
<path d="M178.928 273.727C179.516 269.436 181.869 262.724 180.693 264.25C179.517 265.776 166.575 255.076 148.633 254.782C130.691 254.488 125.985 261.547 118.841 268.9C111.697 276.253 109.219 273.017 109.219 273.017C109.807 258.017 106.573 256.252 94.5133 257.723C82.4533 259.193 69.2173 267.723 64.8053 277.724C60.3943 287.724 58.0414 294.783 58.0414 294.783C58.0414 294.783 58.0414 294.783 60.1504 294.783C62.2594 294.783 68.6293 290.372 71.5703 286.254C74.5113 282.137 77.7473 283.019 76.5703 287.725C75.3943 292.431 64.5114 297.432 60.1504 300.666C55.7894 303.902 53.9214 305.078 54.8044 308.902C55.6874 312.725 55.3924 314.49 53.9214 320.667C52.4504 326.844 53.9214 330.668 53.9214 330.668C53.9214 330.668 58.9223 326.55 62.1573 320.373C65.3923 314.196 73.0403 314.49 74.2163 317.727C75.3943 320.961 64.5114 326.844 60.1504 331.55C55.7894 336.256 57.1583 340.08 58.3343 350.08C59.5113 360.08 65.9823 365.08 65.9823 365.08C65.9823 365.08 71.5703 360.669 71.1703 355.668C70.7713 350.668 77.1574 347.434 78.3354 350.963C79.5114 354.492 75.6873 358.317 71.8633 368.61C68.0393 378.903 81.2754 388.316 81.2754 388.316C81.2754 388.316 84.8053 391.552 86.8643 388.316C88.9233 385.082 98.0413 382.434 105.1 380.963C112.159 379.492 118.839 373.022 118.839 373.022C119.343 368.61 115.1 364.787 109.217 360.08C103.334 355.375 107.452 351.551 113.041 354.786C118.629 358.021 121.276 367.951 121.276 367.951C121.276 367.951 123.335 366.551 127.158 367.728C130.982 368.904 135.688 365.374 140.394 358.609C145.1 351.845 148.335 346.55 148.335 346.55C145.982 337.138 140.981 335.079 131.864 333.02C122.746 330.961 122.157 327.431 122.452 323.019C122.746 318.608 126.864 315.96 130.393 323.314C133.922 330.668 145.393 329.785 148.629 335.373C151.863 340.963 153.041 343.315 153.041 343.315C153.041 343.315 160.982 340.08 169.062 330.961C177.141 321.843 175.099 317.137 174.217 311.254C173.335 305.372 175.688 303.313 177.527 295.371C179.367 287.43 167.747 283.017 167.747 283.017C174.811 281.255 178.34 278.019 178.928 273.727ZM143.338 288.02C137.75 288.02 142.162 285.372 148.338 283.019C154.515 280.666 157.456 283.019 157.456 283.019C157.456 283.019 148.926 288.02 143.338 288.02Z" fill="#207143"/>
<path d="M313.046 170.831C313.046 170.831 287.395 159.441 268.181 222.777C248.967 286.112 240.1 444.253 240.1 444.253H229.015C229.015 444.253 239.133 341.535 251.44 271.333C263.748 201.129 285.917 165.659 304.391 165.659C322.865 165.659 313.046 170.831 313.046 170.831Z" fill="#255B3E"/>
<path d="M286.248 160.783C286.248 160.783 288.087 151.607 283.474 144.555C278.859 137.505 273.316 131.453 273.316 131.453C273.316 131.453 273.687 118.292 283.293 117.183C292.899 116.074 290.911 114.226 296.154 111.27C301.398 108.314 304.723 105.359 304.723 105.359C304.723 105.359 308.048 106.097 308.786 114.964C309.526 123.832 305.462 129.462 312.851 131.452C320.241 133.439 314.698 120.138 312.851 114.964C311.003 109.792 313.22 102.033 313.22 102.033C313.22 102.033 318.024 98.7068 323.197 99.8158C328.369 100.925 332.434 100.638 336.129 96.9008C339.824 93.1638 350.17 96.9008 350.17 96.9008C350.17 96.9008 352.018 104.25 347.953 113.116C343.889 121.985 343.15 126.277 347.584 128.011C352.018 129.744 352.788 120.507 352.587 115.335C352.387 110.162 360.147 96.9008 360.147 96.9008C360.147 96.9008 363.472 93.1638 374.927 92.7948C386.381 92.4258 388.967 86.5138 388.967 86.5138C388.967 86.5138 391.924 88.4448 390.076 96.9008C388.228 105.359 384.639 112.378 390.681 111.639C396.726 110.901 397.464 105.727 395.617 100.554C393.77 95.3818 394.879 86.5128 394.879 86.5128C394.879 86.5128 400.421 85.0348 407.812 86.5128C415.201 87.9918 422.959 85.8568 422.959 85.8568C422.959 85.8568 422.221 97.2288 422.959 107.575C423.699 117.92 420.373 124.284 418.156 123.319C415.939 122.354 406.702 119.481 406.333 123.319C405.964 127.157 415.2 123.092 417.048 127.896C418.895 132.7 414.831 140.458 414.092 143.415C413.353 146.372 414.461 163.367 409.288 167.801C409.288 167.801 403.747 170.758 395.617 162.998C387.488 155.239 380.099 148.587 374.556 148.957C369.014 149.326 365.688 157.086 376.034 159.302C386.381 161.519 395.987 165.952 398.573 170.757C401.16 175.561 399.682 178.885 399.682 178.885C399.682 178.885 393.4 178.147 390.445 182.211C387.488 186.275 376.404 195.143 365.688 198.099C354.974 201.056 349.166 196.622 348.19 191.818C347.214 187.014 347.584 174.452 339.824 170.388C332.064 166.324 333.543 172.605 337.976 177.038C342.411 181.471 342.78 199.051 342.78 199.051C342.78 199.051 328.369 194.404 320.98 197.361C313.59 200.317 306.2 203.642 299.18 201.795C292.159 199.947 296.153 187.385 296.153 187.385C296.153 187.385 299.549 173.714 297.703 169.281C295.856 164.847 285.954 167.082 286.248 160.783Z" fill="#2E4C3C"/>
<path d="M204.736 30.3348C204.736 30.3348 201.764 31.6078 200.49 23.3288C199.217 15.0498 194.759 4.00978 188.814 1.03878C182.871 -1.93422 177.562 2.31178 173.105 3.37278C168.646 4.43478 165.674 2.94878 161.003 4.43478C156.333 5.92078 150.814 10.1658 148.691 13.5638C146.568 16.9598 144.658 18.8708 144.658 18.8708C144.658 18.8708 144.658 21.8438 157.182 24.3908C169.707 26.9378 184.781 30.5468 181.596 35.4298C178.411 40.3128 170.982 36.4908 163.126 30.9708C155.272 25.4508 143.595 23.3288 137.863 24.8158C132.132 26.3008 129.584 28.0008 129.584 28.0008C129.584 28.0008 128.099 33.3078 133.192 40.5258C138.288 47.7428 140.411 53.4748 138.924 59.4188C137.438 65.3638 139.349 70.6708 146.355 74.7038C146.355 74.7038 150.389 70.2468 162.702 66.0008C175.015 61.7548 182.657 63.4538 176.925 67.4868C171.194 71.5198 159.942 68.7598 153.997 73.4298C148.054 78.1008 147.204 80.0108 152.3 91.2618C157.395 102.514 169.707 114.403 169.707 114.403C169.707 114.403 177.986 99.1178 185.417 99.3308C192.847 99.5418 192.635 107.397 185.63 110.582C178.624 113.767 172.679 116.951 174.378 123.532C176.076 130.112 186.48 141.364 187.115 141.788C187.752 142.214 189.45 141.152 191.573 136.906C193.696 132.66 204.31 133.51 199.003 136.906C193.696 140.302 190.937 141.364 191.149 143.274C191.362 145.185 194.546 149.432 202.401 153.676C210.255 157.922 215.987 163.655 215.987 163.655C215.987 163.655 230.848 160.046 239.34 148.794C247.832 137.542 247.619 131.386 242.948 129.689C238.278 127.99 225.753 121.41 227.239 117.8C228.725 114.19 231.697 114.191 234.669 118.862C237.642 123.533 244.223 127.353 249.742 128.416C249.742 128.416 251.653 123.958 257.596 120.349C263.54 116.74 269.06 102.303 266.3 98.2698C263.54 94.2368 251.865 85.1088 241.887 85.1088C231.909 85.1088 237.428 77.8908 243.797 78.3148C250.166 78.7388 261.629 85.5338 265.875 89.5668C270.121 93.5998 271.183 94.2368 274.155 88.0808C277.127 81.9248 279.886 64.9418 279.038 57.7238C278.188 50.5048 276.277 49.8688 262.055 51.5678C247.83 53.2648 243.16 58.9978 238.278 58.1478C233.395 57.2988 233.183 45.1988 246.982 46.2588C260.781 47.3208 276.066 48.8078 276.066 48.8078C276.066 48.8078 279.462 39.6788 271.395 29.0638C263.329 18.4508 256.535 10.5948 250.378 16.7518C244.221 22.9088 240.4 28.6408 235.731 28.0038C231.06 27.3668 230.848 19.2988 237.853 17.1758C244.859 15.0538 248.043 12.5058 248.043 12.5058C248.043 12.5058 243.585 6.56278 237.004 6.56278C230.422 6.56278 229.998 5.07678 223.629 4.01478C217.261 2.95278 209.617 4.65278 208.132 14.6288C206.647 24.6038 208.557 28.2128 204.736 30.3348Z" fill="#397F5B"/>
<path d="M172.016 423.184C172.016 423.184 222.016 436.464 275.516 423.184C275.516 423.184 300.02 518.619 284.664 557.672C273.828 585.229 174.523 603.61 165.519 547.719C156.515 491.828 172.016 423.184 172.016 423.184Z" fill="#FBB4B4"/>
<path d="M164.879 543.394C165.078 544.842 165.289 546.286 165.52 547.719C174.524 603.611 273.829 585.229 284.665 557.672C286.518 552.96 287.785 547.421 288.591 541.334C261.71 558.261 194.778 566.478 164.879 543.394Z" fill="#95652E"/>
<path d="M201.518 468.324C204.743 468.324 204.743 463.324 201.518 463.324C198.293 463.324 198.293 468.324 201.518 468.324Z" fill="#95652E"/>
<path d="M171.852 497.981C171.852 498.151 171.852 498.321 171.852 498.491C171.852 499.853 172.99 500.991 174.352 500.991C175.714 500.991 176.852 499.853 176.852 498.491C176.852 498.321 176.852 498.151 176.852 497.981C176.852 496.619 175.714 495.481 174.352 495.481C172.99 495.481 171.852 496.619 171.852 497.981Z" fill="#95652E"/>
<path d="M183.685 449.949C186.91 449.949 186.91 444.949 183.685 444.949C180.46 444.949 180.46 449.949 183.685 449.949Z" fill="#95652E"/>
<path d="M190.685 483.636C193.91 483.636 193.91 478.636 190.685 478.636C187.46 478.636 187.46 483.636 190.685 483.636Z" fill="#95652E"/>
<path d="M238.019 448.418C238.352 448.418 238.686 448.418 239.019 448.418C240.382 448.418 241.519 447.281 241.519 445.918C241.519 444.555 240.382 443.418 239.019 443.418C238.686 443.418 238.352 443.418 238.019 443.418C236.656 443.418 235.519 444.555 235.519 445.918C235.519 447.281 236.656 448.418 238.019 448.418Z" fill="#95652E"/>
<path d="M241.275 478.739C241.386 479.079 241.498 479.42 241.608 479.76C242.031 481.054 243.324 481.88 244.684 481.506C245.951 481.157 246.852 479.726 246.43 478.43C246.319 478.09 246.207 477.749 246.097 477.409C245.674 476.115 244.381 475.289 243.021 475.663C241.754 476.011 240.853 477.443 241.275 478.739Z" fill="#95652E"/>
<path d="M217.686 483.741C217.575 483.741 217.463 483.741 217.352 483.741C215.99 483.741 214.852 484.879 214.852 486.241C214.852 487.603 215.99 488.741 217.352 488.741C217.463 488.741 217.575 488.741 217.686 488.741C219.048 488.741 220.186 487.603 220.186 486.241C220.186 484.879 219.048 483.741 217.686 483.741Z" fill="#95652E"/>
<path d="M217.845 441.564C218.307 440.853 218.612 440.018 218.336 439.161C217.946 437.947 216.92 437.3 215.686 437.293C214.323 437.285 213.186 438.436 213.186 439.793C213.186 441.162 214.324 442.285 215.686 442.293C216.16 442.304 215.819 442.2 214.664 441.984C214.281 441.486 213.898 440.988 213.516 440.49C213.519 440.501 213.523 440.511 213.526 440.521C213.526 440.078 213.526 439.634 213.526 439.192C213.769 438.684 213.824 438.551 213.688 438.792C213.636 438.876 213.583 438.959 213.528 439.041C212.784 440.185 213.293 441.798 214.425 442.461C215.642 443.174 217.103 442.704 217.845 441.564Z" fill="#95652E"/>
<path d="M172.186 463.271C172.189 464.684 172.717 466.435 174.354 466.704C175.698 466.924 177.04 466.375 177.43 464.958C177.761 463.751 177.03 462.103 175.684 461.882C176.658 462.257 177.162 462.869 177.195 463.718C177.181 463.571 177.186 463.42 177.186 463.272C177.183 461.909 176.051 460.772 174.686 460.772C173.325 460.771 172.183 461.908 172.186 463.271Z" fill="#95652E"/>
<path d="M268.352 437.188C271.577 437.188 271.577 432.188 268.352 432.188C265.127 432.188 265.127 437.188 268.352 437.188Z" fill="#95652E"/>
<path d="M276.519 472.459C276.519 472.8 276.519 473.14 276.519 473.48C276.519 474.843 277.656 475.98 279.019 475.98C280.382 475.98 281.519 474.843 281.519 473.48C281.519 473.139 281.519 472.799 281.519 472.459C281.519 471.096 280.382 469.959 279.019 469.959C277.656 469.959 276.519 471.095 276.519 472.459Z" fill="#95652E"/>
<path d="M258.352 465.261C261.577 465.261 261.577 460.261 258.352 460.261C255.127 460.261 255.127 465.261 258.352 465.261Z" fill="#95652E"/>
<path d="M278.527 501.796C278.638 501.966 278.75 502.136 278.861 502.306C279.604 503.445 281.061 503.917 282.281 503.203C283.412 502.54 283.924 500.924 283.177 499.782C283.067 499.612 282.955 499.442 282.845 499.272C282.101 498.133 280.644 497.661 279.424 498.375C278.292 499.038 277.781 500.654 278.527 501.796Z" fill="#95652E"/>
<path d="M256.351 502.012C259.576 502.012 259.576 497.012 256.351 497.012C253.126 497.012 253.126 502.012 256.351 502.012Z" fill="#95652E"/>
<path d="M188.018 509.159C191.243 509.159 191.243 504.159 188.018 504.159C184.793 504.159 184.793 509.159 188.018 509.159Z" fill="#95652E"/>
<path d="M215.685 508.647C218.91 508.647 218.91 503.647 215.685 503.647C212.46 503.647 212.46 508.647 215.685 508.647Z" fill="#95652E"/>
<path d="M234.02 505.496C234.259 505.538 234.16 505.49 233.723 505.354C233.828 505.415 233.925 505.501 234.023 505.575C234.308 505.791 234.669 505.957 235.02 506.008C235.719 506.108 236.311 506.128 236.947 505.756C237.506 505.428 237.925 504.886 238.096 504.262C238.422 503.074 237.7 501.379 236.35 501.186C236.111 501.144 236.209 501.192 236.647 501.328C236.541 501.267 236.444 501.181 236.346 501.107C236.062 500.891 235.701 500.725 235.35 500.674C234.651 500.574 234.059 500.554 233.423 500.926C232.864 501.254 232.445 501.796 232.274 502.42C231.947 503.607 232.669 505.301 234.02 505.496Z" fill="#95652E"/>
</svg>
