<svg width="406" height="595" viewBox="0 0 406 595" fill="none" xmlns="http://www.w3.org/2000/svg">
<path d="M196.279 112.389C195.232 115.724 218.81 132.23 223.4 204.889C227.99 277.548 232.727 399.891 232.727 399.891L225.662 396.434C225.662 396.434 215.693 220.389 214.486 188.889C213.279 157.389 199.724 123.671 188.502 116.28C177.28 108.889 196.279 112.389 196.279 112.389Z" fill="#1A2D22"/>
<path d="M124.562 321.578C124.562 321.578 150.41 337.534 169.986 371.398C189.562 405.262 216.562 456.262 219.895 463.262C223.228 470.262 226.84 473.262 228.368 473.595C229.896 473.928 233.228 465.262 232.228 461.262C231.228 457.262 228.368 455.262 228.368 455.262C228.368 455.262 219.229 439.018 191.562 394.64C163.895 350.262 147.894 324.262 126.228 319.262L124.562 321.578Z" fill="#1A2D22"/>
<path d="M184.919 279.052C184.919 279.052 193.91 272.506 198.964 287.666C204.018 302.827 212.68 351.681 213.402 374.54C214.125 397.399 222.066 423.676 225.675 429.307C229.284 434.939 231.239 437.827 231.239 437.827L232.766 455.153C232.766 455.153 222.787 447.933 216.289 431.69C209.791 415.447 203.654 388.014 202.572 368.522C201.489 349.031 196.283 317.632 194.631 298.135C192.98 278.638 184.919 279.052 184.919 279.052Z" fill="#1A2D22"/>
<path d="M272.366 282.767C272.366 282.767 265.78 281.889 255.681 280.132C245.582 278.375 239.436 274.424 241.192 266.521C242.948 258.618 258.754 246.497 269.293 244.654C279.832 242.811 283.345 239.736 286.856 238.42C290.367 237.104 287.733 237.913 299.588 240.362C311.443 242.811 329.007 244.301 334.276 244.654C339.545 245.007 335.814 248.08 336.582 251.592C337.35 255.104 331.642 260.28 331.642 260.28C331.642 260.28 331.203 252.955 325.934 254.03C320.665 255.105 315.834 257.74 313.201 265.643C310.568 273.546 305.298 278.816 293.882 282.767C282.466 286.718 272.366 282.767 272.366 282.767Z" fill="#1A2D22"/>
<path d="M269.447 340.722C269.447 340.722 263.114 340.388 257.447 349.055C251.78 357.722 241.604 369.389 241.192 408.389C240.78 447.389 238.241 467.722 237.177 468.722C236.113 469.722 236.114 472.409 239.114 475.399C242.114 478.389 247.113 474.721 246.78 469.055C246.447 463.389 246.114 404.721 248.447 388.055C250.78 371.389 254.448 358.055 263.114 352.055C271.78 346.055 269.447 340.722 269.447 340.722Z" fill="#1A2D22"/>
<path d="M241.192 443.055C241.101 441.569 250.78 424.732 257.78 398.227C264.78 371.722 278.59 279.182 294.518 237.119C310.446 195.056 331.284 175.982 342.447 174.389C353.61 172.796 353.78 177.389 353.78 177.389C353.78 177.389 322.114 183.055 308.447 220.055C294.78 257.055 280.114 309.718 275.114 340.72C270.114 371.722 265.966 419.184 259.089 435.241C252.212 451.298 247.69 460.271 246.623 462.012C245.556 463.753 241.8 453.062 241.192 443.055Z" fill="#2E4C3C"/>
<path d="M126.78 186.097C130.114 187.626 158.566 194.39 174.507 228.723C190.448 263.056 201.446 307.389 209.78 347.056C218.114 386.723 222.212 392.065 225.663 398.227C229.114 404.389 233.343 412.723 232.728 413.723C232.113 414.723 232.728 439.056 232.728 439.056C232.728 439.056 224.454 434.403 221.617 425.396C218.78 416.389 208.026 379.056 203.57 350.056C199.114 321.056 187.901 270.181 170.841 237.118C153.781 204.055 137.78 194.055 128.78 193.389C119.78 192.723 126.78 186.097 126.78 186.097Z" fill="#255B3E"/>
<path d="M297.486 170.123C297.486 170.123 274.114 189.056 263.447 257.39C252.78 325.724 250.113 387.465 250.113 408.594C250.113 429.723 243.651 456.954 244.257 458.507C244.863 460.06 238.082 465.2 238.249 463.982C238.416 462.764 238.809 428.469 241.191 396.435C243.573 364.401 252.446 279.247 261.78 237.793C271.114 196.339 286.268 174.518 289.024 168.787C291.78 163.056 297.486 170.123 297.486 170.123Z" fill="#255B3E"/>
<path d="M232.788 194.056C232.788 194.056 238.29 214.785 237.178 272.722C236.066 330.659 239.081 414.694 239.431 427.374C239.781 440.054 240.379 474.408 238.246 475.398C236.113 476.388 230.447 471.721 230.447 465.721C230.447 459.721 230.114 290.388 230.447 252.388C230.78 214.388 228.813 204.915 228.297 200.319C227.781 195.723 232.788 194.056 232.788 194.056Z" fill="#255B3E"/>
<path d="M194.113 218.509C194.113 218.509 215.969 253.212 223.15 316.801C230.331 380.39 231.78 427.391 231.78 427.391L224.253 404.391C224.253 404.391 221.112 324.39 212.946 287.724C204.78 251.058 192.095 227.399 192.095 227.399L194.113 218.509Z" fill="#1A2D22"/>
<path d="M344.78 128.085C344.78 128.085 306.342 182.672 280.484 255.727C254.626 328.782 252.571 450.534 252.571 450.534C252.571 450.534 247.657 449.89 246.218 445.39C244.779 440.89 254.951 331.851 267.865 278.37C280.779 224.889 310.779 175.309 323.779 153.099C336.779 130.889 344.779 121.389 344.779 121.389V128.085H344.78Z" fill="#1A2D22"/>
<path d="M265.78 340.725C265.78 340.725 253.049 335.896 241.192 331.944C229.335 327.992 221.871 332.065 224.945 335.078C228.019 338.091 241.633 347.751 241.192 356.532C240.751 365.313 248.656 370.219 268.853 385.768C289.05 401.317 304.419 421.954 305.736 421.515C307.053 421.076 318.029 411.562 321.981 398.317C325.933 385.072 334.276 376.729 336.032 365.753C337.788 354.777 335.155 353.458 330.763 345.994C326.371 338.53 313.638 326.863 301.344 325.232C289.05 323.601 274.123 327.114 265.78 340.725Z" fill="#1A2D22"/>
<path d="M136.252 320.967C136.252 320.967 140.203 311.747 136.252 300.77C132.301 289.793 84.8797 286.719 67.7557 291.549C50.6317 296.379 51.0706 303.825 40.5326 305.152C29.9946 306.479 20.7737 308.129 16.3837 316.524C11.9937 324.919 5.84663 330.309 3.65063 335.079C1.45463 339.849 -1.61935 344.679 1.01565 344.239C3.65065 343.799 6.28466 339.969 10.2367 335.079C14.1887 330.189 33.0697 312.636 45.3627 316.802C57.6557 320.968 92.7827 342.043 109.907 338.092C127.031 334.141 136.252 320.967 136.252 320.967Z" fill="#1A2D22"/>
<path d="M346.131 177.389C346.131 177.389 333.397 173.875 327.25 169.484C321.103 165.093 309.248 161.141 303.54 164.215C297.832 167.289 304.857 181.339 312.761 183.974C320.665 186.609 323.415 187.046 323.796 193.633C324.177 200.22 340.861 224.368 361.498 227.003C382.135 229.638 386.965 228.759 389.16 233.589C391.355 238.419 400.575 250.276 409.357 251.592C418.139 252.908 419.896 265.077 425.165 269.092C430.434 273.107 439.216 278.375 445.802 281.888C452.388 285.401 455.023 291.988 457.218 292.866C459.413 293.744 465.856 295.5 469.659 274.863C473.462 254.226 459.852 229.2 462.926 217.344C466 205.488 463.803 190.999 457.656 187.487C451.509 183.975 448.435 180.903 445.362 177.389C442.289 173.875 424.287 159.825 405.406 150.604C386.525 141.383 369.84 141.383 361.498 150.604C353.156 159.825 356.942 181.11 346.131 177.389Z" fill="#1A2D22"/>
<path d="M193.77 228.761C193.77 228.761 194.649 225.688 186.306 228.761C177.963 231.834 152.497 244.568 146.35 230.956C140.203 217.344 142.838 206.807 134.056 205.489C125.274 204.171 113.418 198.025 113.858 183.974C114.298 169.923 113.858 166.19 110.345 163.666C106.832 161.142 103.321 154.995 105.076 149.287C106.831 143.579 104.609 138.749 104.609 138.749C104.609 138.749 109.467 136.553 115.614 136.114C121.761 135.675 122.638 133.041 127.468 129.089C132.298 125.137 135.812 121.637 141.958 124.485C148.104 127.333 150.74 129.967 155.569 128.211C160.398 126.455 170.168 125.577 174.504 129.967C178.84 134.357 184.161 144.018 193.795 147.969C203.429 151.92 216.738 157.919 226.549 171.824C236.36 185.729 233.655 206.797 224.25 211.631C214.845 216.465 195.088 221.736 193.77 228.761Z" fill="#1A2D22"/>
<path d="M336.582 125.577C336.582 125.577 336.191 120.747 320.964 117.674C305.737 114.601 298.712 115.478 299.59 105.38C300.468 95.282 314.519 82.986 323.3 81.231C332.081 79.476 335.594 72.889 341.741 68.937C347.888 64.985 358.865 61.473 365.89 61.473C372.915 61.473 375.112 60.156 387.844 54.448C400.576 48.74 403.65 42.154 420.335 45.227C437.02 48.3 444.485 48.3 452.827 48.74C461.169 49.18 467.316 52.253 475.659 55.326C484.002 58.399 490.149 56.204 491.905 57.96C493.661 59.716 486.197 61.912 486.197 61.912C486.197 61.912 478.149 63.229 469.659 68.059C461.169 72.889 455.022 70.585 452.827 79.421C450.632 88.257 446.681 105.381 429.117 113.284C411.553 121.187 408.925 118.992 395.31 125.578C381.695 132.164 379.939 144.238 359.742 143.689C339.545 143.14 334.496 133.481 336.582 125.577Z" fill="#1A2D22"/>
<path d="M291.248 171.839C291.248 171.839 290.396 167.448 277.225 161.74C264.054 156.032 253.514 152.08 250.88 146.372C248.246 140.664 248.246 140.664 248.246 140.664C248.246 140.664 264.053 121.345 284.689 119.588C305.325 117.831 312.795 115.068 316.015 115.635C319.235 116.202 323.186 122.574 330.792 125.735C338.398 128.896 348.355 127.931 360.21 131.882C372.065 135.833 378.197 143.152 378.197 143.152C378.197 143.152 376.016 148.568 371.626 155.153C367.236 161.738 355.379 172.278 341.329 171.838C327.279 171.398 296.543 170.082 296.543 170.082L291.248 171.839Z" fill="#255B3E"/>
<path d="M231.532 202.416C231.532 202.416 237.241 190.121 249.535 189.683C261.829 189.245 273.244 199.236 277.196 197.972C281.148 196.708 279.685 191.879 280.417 183.536C281.149 175.193 275.879 165.973 268.415 162.899C260.951 159.825 251.73 156.911 246.022 153.099C240.314 149.287 228.019 150.165 212.212 147.531C196.405 144.897 186.306 142.701 180.159 141.384C174.012 140.067 169.182 147.691 171.378 153.099C173.574 158.507 178.843 158.947 181.038 163.338C183.233 167.729 192.892 168.168 192.892 168.168C192.892 168.168 194.21 179.146 196.844 184.414C199.478 189.682 211.773 180.901 211.773 180.901C211.773 180.901 222.68 183.974 224.252 192.317C225.824 200.66 231.532 202.416 231.532 202.416Z" fill="#397F5B"/>
<path d="M272.297 165.186C271.093 164.245 269.792 163.466 268.415 162.899C260.951 159.825 251.73 156.911 246.022 153.099C240.314 149.287 228.019 150.165 212.212 147.531C196.405 144.897 186.306 142.701 180.159 141.384C178.036 140.929 176.079 141.556 174.506 142.775C174.999 143.51 175.562 143.876 176.208 143.689C179.775 142.658 178.403 146.653 179.721 150.605C181.039 154.557 184.99 153.679 185.429 158.069C185.867 162.453 191.085 167.981 191.102 167.999C192.175 168.132 192.893 168.168 192.893 168.168C192.893 168.168 194.211 179.146 196.845 184.414C199.479 189.682 211.774 180.901 211.774 180.901C211.774 180.901 212.442 181.089 213.468 181.498C213.468 181.498 224.507 173.876 225.662 172.572C226.817 171.268 236.361 165.533 243.387 161.143C250.413 156.753 251.73 161.582 258.316 165.186C264.895 168.786 272.281 165.194 272.297 165.186Z" fill="#2E4C3C"/>
<path d="M129.666 190.121C129.666 190.121 134.058 174.314 119.129 169.924C104.2 165.534 93.6616 173.727 83.5636 171.825C73.4656 169.923 66.4386 164.682 59.8526 172.572C53.2666 180.462 49.3156 185.73 40.0946 187.926C30.8736 190.122 25.1656 198.463 24.7266 207.245C24.2876 216.027 23.4106 221.622 17.2626 224.972C11.1146 228.322 8.7906 239.299 12.1486 248.958C15.5066 258.617 16.3846 266.52 14.1896 272.668C11.9946 278.816 22.5316 275.616 24.7276 269.093C26.9236 262.57 26.0446 260.442 33.5096 258.652C40.9746 256.862 49.3166 259.497 52.3896 250.276C55.4626 241.055 62.4896 237.575 73.4656 237.12C84.4416 236.665 126.869 242.525 134.937 231.835C143.005 221.145 164.352 193.634 129.666 190.121Z" fill="#255B3E"/>
<path d="M196.845 123.448C196.845 123.448 199.479 111.376 188.502 116.281C177.525 121.186 170.373 130.845 158.801 127.333C147.229 123.821 125.714 110.648 122.201 90.451C118.688 70.254 117.809 69.375 109.468 64.106C101.127 58.837 94.0996 52.69 96.7346 42.591C99.3696 32.492 98.0516 37.761 93.6616 27.662C89.2716 17.563 89.6306 11.855 90.5486 7.903C91.4666 3.951 94.5396 0 94.5396 0C94.5396 0 103.321 1.75701 112.981 2.63501C122.641 3.51301 128.349 -1.75599 132.74 3.95201C137.131 9.66001 142.839 15.807 152.059 18.003C161.279 20.199 186.86 20.638 197.121 34.688C207.382 48.738 203.87 53.129 220.994 57.081C238.118 61.033 241.191 66.741 246.021 81.23C250.851 95.719 248.413 108.453 232.727 108.014C217.041 107.575 199.919 115.611 196.845 123.448Z" fill="#255B3E"/>
<path d="M186.368 278.592C186.368 278.592 186.807 251.809 165.731 250.052C144.655 248.295 145.534 258.833 136.313 260.151C127.092 261.469 114.359 265.859 112.164 278.592C109.969 291.325 109.529 302.204 102.943 311.254C96.357 320.304 91.528 333.037 99.87 351.478C108.212 369.919 112.602 392.258 112.602 392.258C112.602 392.258 131.445 387.922 140.904 376.945C150.363 365.968 171.441 346.21 186.369 340.062C201.297 333.914 221.933 330.403 225.446 318.547C228.959 306.691 246.083 290.885 246.083 282.982C246.083 275.079 232.471 270.675 215.786 274.194C199.101 277.713 196.028 287.812 186.368 278.592Z" fill="#2E4C3C"/>
<path d="M337.054 284.523C337.054 284.523 322.389 277.324 309.389 284.523C296.389 291.722 290.389 296.388 279.389 329.055C268.389 361.722 266.389 395.389 254.389 427.389C242.389 459.389 236.721 464.722 236.721 465.722C236.721 466.722 236.293 475.684 236.721 475.261C237.149 474.838 243.093 474.388 245.408 470.055C247.723 465.722 255.628 450.723 262.009 425.389C268.39 400.055 275.876 374.389 281.299 355.389C286.722 336.389 291.057 306.723 302.39 297.389C313.723 288.055 319.723 283.324 324.723 284.523C329.723 285.722 337.054 284.523 337.054 284.523Z" fill="#1A2D22"/>
<path d="M336.279 282.767C336.279 282.767 341.109 269.662 345.06 258.651C349.011 247.64 368.331 240.616 374.917 247.202C381.503 253.788 386.772 264.764 396.432 270.912C406.092 277.06 430.242 292.652 436.828 309.224C443.414 325.796 449.561 346.432 457.025 357.41C464.489 368.388 456.586 374.534 457.025 381.559C457.464 388.584 457.904 400 457.464 401.318C457.024 402.636 448.243 402.966 432.875 396.434C417.507 389.902 401.851 382.727 398.263 370.947C394.675 359.167 359.988 335.457 346.816 329.309C333.644 323.161 309.495 301.647 311.69 285.84C313.885 270.033 336.279 282.767 336.279 282.767Z" fill="#2E4C3C"/>
<path d="M158.749 472.132C158.749 472.132 167.416 458.284 181.749 466.067C196.082 473.85 199.761 474.265 210.255 467.057C220.749 459.849 228.318 462.706 234.2 467.945C240.082 473.184 245.674 471.744 254.545 467.464C263.416 463.184 271.416 458.932 277.416 467.058C283.416 475.184 289.048 472.286 298.898 466.068C308.748 459.85 319.416 465.083 320.749 472.133C322.082 479.183 303.806 588.804 237.944 594.66C172.082 600.515 161.415 486.415 158.749 472.132Z" fill="#FBB4B4"/>
<path d="M181.749 485.855C196.082 493.637 199.761 494.053 210.255 486.845C220.749 479.637 228.318 482.494 234.2 487.733C240.082 492.972 245.674 491.532 254.545 487.252C263.416 482.972 271.416 478.72 277.416 486.846C283.416 494.972 289.048 492.074 298.898 485.856C306.71 480.925 315.029 483.198 318.806 487.865C320.457 479.45 321.024 473.592 320.748 472.133C319.415 465.082 308.748 459.85 298.897 466.068C289.046 472.286 283.415 475.184 277.415 467.058C271.415 458.932 263.415 463.184 254.544 467.464C245.673 471.744 240.081 473.184 234.199 467.945C228.317 462.706 220.748 459.849 210.254 467.057C199.76 474.265 196.081 473.849 181.748 466.067C167.415 458.285 158.748 472.132 158.748 472.132C159.239 474.762 160.003 480.785 161.332 488.813C164.901 485.259 172.016 480.571 181.749 485.855Z" fill="#95652E"/>
<path d="M222.179 505.169C222.179 505.169 219.217 522.547 224.252 517.669C229.287 512.791 222.179 505.169 222.179 505.169Z" fill="#95652E"/>
<path d="M258.691 505.169C258.691 505.169 252.551 520.285 260.306 517.669C268.061 515.053 258.691 505.169 258.691 505.169Z" fill="#95652E"/>
<path d="M293.912 503.097C293.912 503.097 291.042 518.808 297.485 514.668C303.928 510.528 293.912 503.097 293.912 503.097Z" fill="#95652E"/>
<path d="M183.081 505.169C183.081 505.169 178.355 521.254 184.919 517.669C191.483 514.084 183.081 505.169 183.081 505.169Z" fill="#95652E"/>
<path d="M200.207 523.777C200.207 523.777 194.39 540.256 201.822 537.672C209.254 535.088 200.207 523.777 200.207 523.777Z" fill="#95652E"/>
<path d="M222.495 544.134C222.495 544.134 216.678 560.613 224.11 558.029C231.542 555.445 222.495 544.134 222.495 544.134Z" fill="#95652E"/>
<path d="M260.623 544.134C260.623 544.134 254.806 560.613 262.238 558.029C269.67 555.445 260.623 544.134 260.623 544.134Z" fill="#95652E"/>
<path d="M285.603 547.255C285.603 547.255 279.786 563.734 287.218 561.15C294.65 558.566 285.603 547.255 285.603 547.255Z" fill="#95652E"/>
<path d="M237.055 565.783C237.055 565.783 231.238 582.262 238.67 579.678C246.102 577.094 237.055 565.783 237.055 565.783Z" fill="#95652E"/>
<path d="M196.849 548.395C196.849 548.395 191.032 564.874 198.464 562.29C205.896 559.706 196.849 548.395 196.849 548.395Z" fill="#95652E"/>
<path d="M241.947 523.777C241.947 523.777 236.13 540.256 243.562 537.672C250.994 535.088 241.947 523.777 241.947 523.777Z" fill="#95652E"/>
<path d="M283.688 523.777C283.688 523.777 277.871 540.256 285.303 537.672C292.735 535.088 283.688 523.777 283.688 523.777Z" fill="#95652E"/>
</svg>
