<svg width="263" height="550" viewBox="0 0 263 550" fill="none" xmlns="http://www.w3.org/2000/svg">
<path d="M180.331 249.899C175.327 249.899 171.269 253.955 171.269 258.96C171.266 284.543 168.707 356.265 157.056 380.59C151.078 393.068 137.775 398.708 130.304 400.495C133.079 394.577 134.823 386.493 136.263 379.334C141.735 352.129 143.456 331.898 143.361 329.255L142.022 56.671C142.022 51.6673 144.054 48.1647 139.05 48.1647C134.045 48.1647 129.988 52.222 129.988 57.2257V329.574C129.988 329.703 129.991 329.832 129.996 329.96C130.024 330.609 131.737 379.286 109.055 406.993C101.172 395.374 88.7034 370.023 88.7034 325.893V200.557C88.7034 195.552 84.6452 191.495 79.6414 191.495C74.6367 191.495 78.1384 192.814 78.1384 197.819L76.9575 323.938C76.9575 374.362 85.5134 405.364 95.2597 418.951C90.3036 421.853 84.6547 423.972 78.1927 425.018C73.2528 425.818 69.897 430.47 70.6957 435.411C71.4162 439.862 75.2629 443.027 79.6309 443.027C80.1122 443.027 80.5993 442.989 81.0901 442.909C92.1918 441.112 102.081 436.959 110.639 430.576C112.743 430.29 114.755 429.281 116.252 427.555C117.149 426.516 117.747 425.331 118.101 424.095C119.814 422.381 121.461 420.561 123.041 418.632C124.082 418.699 125.225 418.744 126.472 418.744C129.88 418.744 133.99 418.426 138.443 417.419C149.22 414.985 158.35 404.866 167.719 385.306C183.531 352.299 182.403 265.24 182.403 261.319C182.402 256.313 185.336 249.899 180.331 249.899Z" fill="#1A2D22"/>
<path d="M152.161 14.3125C130.081 51.4908 133.826 105.971 133.826 105.971C133.826 105.971 158.239 57.1246 152.161 14.3125Z" fill="#397F5B"/>
<path d="M217.15 32.5739C171.287 61.2221 136.263 120.503 136.263 120.503C136.263 120.503 192.422 80.6623 217.15 32.5739Z" fill="#2E4C3C"/>
<path d="M57.0742 35.9812C102.933 63.3436 137.456 120.503 137.456 120.503C137.456 120.503 81.361 82.3817 57.0742 35.9812Z" fill="#2E4C3C"/>
<path d="M124.149 0C115.676 42.4051 137.308 92.5436 137.308 92.5436C137.308 92.5436 144.108 38.362 124.149 0Z" fill="#2E4C3C"/>
<path d="M117.986 19.8033C110.681 67.6639 137.441 122.638 137.441 122.638C137.441 122.638 142.27 61.688 117.986 19.8033Z" fill="#397F5B"/>
<path d="M87.4414 30.6954C95.1357 78.4941 137.439 122.638 137.439 122.638C137.439 122.638 123.383 63.1331 87.4414 30.6954Z" fill="#2E4C3C"/>
<path d="M41.6074 80.5736C76.9615 113.648 137.439 122.637 137.439 122.637C137.439 122.637 89.8874 84.2049 41.6074 80.5736Z" fill="#2E4C3C"/>
<path d="M160.174 20.4801C134.56 61.5661 137.439 122.638 137.439 122.638C137.439 122.638 165.943 68.5504 160.174 20.4801Z" fill="#2E4C3C"/>
<path d="M181.229 27.5815C147.519 62.3342 137.44 122.637 137.44 122.637C137.44 122.637 176.72 75.7862 181.229 27.5815Z" fill="#2E4C3C"/>
<path d="M235.054 84.8958C186.659 86.3703 137.438 122.638 137.438 122.638C137.438 122.638 198.255 116.36 235.054 84.8958Z" fill="#2E4C3C"/>
<path d="M137.831 122.638C137.831 122.638 102.587 118.666 81.0215 86.1045C81.0215 86.1055 112.605 89.8206 137.831 122.638Z" fill="#397F5B"/>
<path d="M137.344 122.638C137.344 122.638 172.584 118.666 194.148 86.1045C194.147 86.1055 162.567 89.8206 137.344 122.638Z" fill="#397F5B"/>
<path d="M137.344 122.638C137.344 122.638 175.475 134.458 217.149 116.27C217.149 116.271 172.017 102.98 137.344 122.638Z" fill="#2E4C3C"/>
<path d="M137.168 122.638C137.168 122.638 99.0363 134.458 57.3604 116.27C57.3604 116.271 102.493 102.98 137.168 122.638Z" fill="#2E4C3C"/>
<path d="M137.169 122.637C137.169 122.637 111.223 125.447 101.727 162.341C101.728 162.341 133.162 150.146 137.169 122.637Z" fill="#2E4C3C"/>
<path d="M135.41 122.637C135.41 122.637 161.356 125.447 170.854 162.341C170.854 162.341 139.419 150.146 135.41 122.637Z" fill="#2E4C3C"/>
<path d="M92.5 150.033C74.0243 181.139 77.1581 226.721 77.1581 226.721C77.1581 226.721 97.5857 185.854 92.5 150.033Z" fill="#2E4C3C"/>
<path d="M146.873 173.025C108.498 196.994 79.1943 246.595 79.1943 246.595C79.1943 246.595 126.182 213.261 146.873 173.025Z" fill="#2E4C3C"/>
<path d="M12.9424 175.876C51.3111 198.771 80.1956 246.596 80.1956 246.596C80.1956 246.596 33.2633 214.699 12.9424 175.876Z" fill="#397F5B"/>
<path d="M69.0634 145.771C61.9743 181.249 80.0727 223.2 80.0727 223.2C80.0727 223.2 85.7626 177.868 69.0634 145.771Z" fill="#397F5B"/>
<path d="M63.9037 162.341C57.7915 202.386 80.1816 248.379 80.1816 248.379C80.1816 248.379 84.2208 197.385 63.9037 162.341Z" fill="#2E4C3C"/>
<path d="M38.3486 171.452C44.7868 211.447 80.1818 248.379 80.1818 248.379C80.1818 248.379 68.4197 198.593 38.3486 171.452Z" fill="#2E4C3C"/>
<path d="M0 213.185C29.5793 240.859 80.181 248.38 80.181 248.38C80.181 248.38 40.394 216.226 0 213.185Z" fill="#2E4C3C"/>
<path d="M99.2017 162.907C77.7723 197.282 80.1807 248.379 80.1807 248.379C80.1807 248.379 104.03 203.125 99.2017 162.907Z" fill="#2E4C3C"/>
<path d="M116.818 168.848C88.6136 197.925 80.1807 248.38 80.1807 248.38C80.1807 248.38 113.044 209.179 116.818 168.848Z" fill="#397F5B"/>
<path d="M161.852 216.802C121.362 218.036 80.1807 248.379 80.1807 248.379C80.1807 248.379 131.064 243.128 161.852 216.802Z" fill="#2E4C3C"/>
<path d="M80.5074 248.379C80.5074 248.379 51.0205 245.059 32.9766 217.814C32.9766 217.814 59.4011 220.922 80.5074 248.379Z" fill="#2E4C3C"/>
<path d="M80.0996 248.379C80.0996 248.379 109.586 245.059 127.629 217.814C127.629 217.814 101.206 220.922 80.0996 248.379Z" fill="#397F5B"/>
<path d="M80.0996 248.379C80.0996 248.379 112.004 258.27 146.874 243.051C146.874 243.052 109.113 231.932 80.0996 248.379Z" fill="#397F5B"/>
<path d="M79.9544 248.379C79.9544 248.379 48.0486 258.27 13.1787 243.051C13.1787 243.052 50.9413 231.932 79.9544 248.379Z" fill="#397F5B"/>
<path d="M79.9553 248.379C79.9553 248.379 58.2467 250.73 50.2998 281.599C50.2998 281.6 76.6004 271.395 79.9553 248.379Z" fill="#2E4C3C"/>
<path d="M78.4834 248.379C78.4834 248.379 100.192 250.73 108.138 281.599C108.138 281.6 81.8364 271.395 78.4834 248.379Z" fill="#2E4C3C"/>
<path d="M192.801 171.975C174.325 203.082 177.459 248.663 177.459 248.663C177.459 248.663 197.887 207.796 192.801 171.975Z" fill="#2E4C3C"/>
<path d="M247.175 194.967C208.801 218.936 179.497 268.537 179.497 268.537C179.497 268.537 226.485 235.203 247.175 194.967Z" fill="#2E4C3C"/>
<path d="M113.245 197.817C151.614 220.712 180.498 268.537 180.498 268.537C180.498 268.537 133.566 236.641 113.245 197.817Z" fill="#397F5B"/>
<path d="M169.362 167.713C162.273 203.191 180.371 245.142 180.371 245.142C180.371 245.142 186.061 199.81 169.362 167.713Z" fill="#397F5B"/>
<path d="M164.206 184.282C158.094 224.327 180.484 270.32 180.484 270.32C180.484 270.32 184.525 219.327 164.206 184.282Z" fill="#2E4C3C"/>
<path d="M138.651 193.394C145.09 233.389 180.485 270.321 180.485 270.321C180.485 270.321 168.721 220.536 138.651 193.394Z" fill="#2E4C3C"/>
<path d="M100.303 235.126C129.882 262.8 180.484 270.321 180.484 270.321C180.484 270.321 140.697 238.168 100.303 235.126Z" fill="#2E4C3C"/>
<path d="M199.504 184.849C178.075 219.224 180.483 270.321 180.483 270.321C180.483 270.321 204.334 225.067 199.504 184.849Z" fill="#2E4C3C"/>
<path d="M217.12 190.79C188.916 219.867 180.483 270.321 180.483 270.321C180.483 270.321 213.347 231.122 217.12 190.79Z" fill="#397F5B"/>
<path d="M262.155 238.744C221.665 239.978 180.483 270.321 180.483 270.321C180.483 270.321 231.366 265.069 262.155 238.744Z" fill="#2E4C3C"/>
<path d="M180.81 270.321C180.81 270.321 151.323 267.001 133.279 239.757C133.279 239.757 159.705 242.864 180.81 270.321Z" fill="#2E4C3C"/>
<path d="M180.402 270.321C180.402 270.321 209.889 267.001 227.931 239.757C227.932 239.757 201.509 242.864 180.402 270.321Z" fill="#397F5B"/>
<path d="M180.402 270.321C180.402 270.321 212.307 280.213 247.177 264.994C247.177 264.994 209.415 253.873 180.402 270.321Z" fill="#397F5B"/>
<path d="M180.255 270.321C180.255 270.321 148.349 280.213 113.479 264.994C113.479 264.994 151.243 253.873 180.255 270.321Z" fill="#397F5B"/>
<path d="M180.258 270.321C180.258 270.321 158.549 272.673 150.603 303.541C150.603 303.541 176.903 293.337 180.258 270.321Z" fill="#2E4C3C"/>
<path d="M178.786 270.321C178.786 270.321 200.495 272.673 208.441 303.541C208.441 303.541 182.14 293.337 178.786 270.321Z" fill="#2E4C3C"/>
<path d="M52.5664 400.497C54.6156 400.281 106.453 417.233 190.527 400.497C190.527 400.497 165.408 526.725 153.394 538.798C141.38 550.87 86.0428 555.954 75.7952 531.808C65.5475 507.663 52.5664 400.497 52.5664 400.497Z" fill="#FBB4B4"/>
<path d="M52.5664 400.497C52.5664 400.497 54.6403 417.615 57.7836 439.706C61.6065 440.861 66.1365 441.086 70.5779 438.21C80.9028 431.521 87.9414 432.217 94.1518 437.872C100.362 443.528 113.748 444.898 121.547 438.21C129.345 431.522 135.972 430.504 145.079 438.052C154.187 445.599 160.814 443.656 167.023 438.21C173.233 432.764 172.819 433.768 182.343 439.27C187.177 417.323 190.526 400.497 190.526 400.497C106.453 417.232 54.6165 400.281 52.5664 400.497Z" fill="#95652E"/>
<path d="M65.2688 431.935C64.636 453.465 71.8194 474.474 74.1488 495.745C75.2992 506.243 75.5231 516.787 78.6035 526.972C80.0713 531.827 81.3275 541.03 86.3226 543.715C89.0285 545.17 91.4351 541.056 88.7274 539.601C86.6153 538.466 85.7422 533.984 85.0407 531.901C83.8113 528.251 82.7543 524.488 81.8593 520.744C79.5309 511.001 79.448 500.677 78.4082 490.742C76.3419 471.01 69.4462 451.948 70.0343 431.935C70.1248 428.86 65.3594 428.869 65.2688 431.935Z" fill="#95652E"/>
<path d="M105.02 434.42C106.319 455.397 103.862 476.302 102.909 497.238C102.437 507.628 102.385 518.113 103.558 528.46C104.047 532.784 105.324 536.961 106.762 541.05C107.498 543.142 107.418 545.686 108.737 547.554C109.351 548.423 110.34 548.971 111.427 548.649C112.606 548.3 113.091 547.561 113.426 546.432C114.302 543.477 109.702 542.225 108.832 545.164C108.782 545.331 108.733 545.497 108.684 545.662C109.239 545.107 109.794 544.552 110.348 543.998C110.286 544.017 110.224 544.035 110.162 544.054C111.058 544.419 111.955 544.784 112.852 545.148C111.589 543.36 111.486 540.152 110.756 538.074C109.035 533.184 108.22 528.228 107.827 523.073C107.075 513.251 107.363 503.364 107.851 493.539C108.833 473.828 111.009 454.173 109.785 434.42C109.595 431.368 104.829 431.349 105.02 434.42Z" fill="#95652E"/>
<path d="M147.666 436.076C147.801 455.419 143.596 474.223 139.562 493.032C137.592 502.216 135.758 511.424 134.501 520.736C133.334 529.388 134.581 537.706 130.601 545.838C131.286 545.445 131.971 545.052 132.658 544.658C132.53 544.673 132.401 544.689 132.275 544.704C133.041 545.71 133.806 546.714 134.572 547.721C134.711 546.8 134.669 546.089 134.542 545.164C134.125 542.132 129.533 543.428 129.946 546.432C129.957 546.439 129.966 546.446 129.977 546.452C129.772 547.806 130.58 549.671 132.275 549.469C138.209 548.763 138.521 535.302 138.732 530.824C139.235 520.158 140.904 509.919 143.065 499.464C147.398 478.491 152.581 457.637 152.431 436.076C152.41 433.004 147.644 433.001 147.666 436.076Z" fill="#95652E"/>
<path d="M171.68 429.037C169.714 450.516 165.618 471.677 160.693 492.657C158.334 502.705 155.767 512.702 153.178 522.692C151.82 527.933 152.376 539.17 146.101 541.017C143.16 541.882 144.414 546.482 147.369 545.612C154.219 543.597 155.49 536.758 156.407 530.525C157.962 519.983 161.503 509.575 164.021 499.221C169.641 476.111 174.276 452.745 176.444 429.037C176.725 425.975 171.957 426.003 171.68 429.037Z" fill="#95652E"/>
<path d="M133.277 289.363C111.197 326.541 114.943 381.021 114.943 381.021C114.943 381.021 139.355 332.176 133.277 289.363Z" fill="#397F5B"/>
<path d="M198.264 307.624C152.401 336.272 117.377 395.553 117.377 395.553C117.377 395.553 173.535 355.714 198.264 307.624Z" fill="#2E4C3C"/>
<path d="M38.1904 311.032C84.0495 338.394 118.573 395.554 118.573 395.554C118.573 395.554 62.4781 357.433 38.1904 311.032Z" fill="#2E4C3C"/>
<path d="M105.264 275.051C96.7907 317.456 118.422 367.594 118.422 367.594C118.422 367.594 125.223 313.414 105.264 275.051Z" fill="#2E4C3C"/>
<path d="M99.1023 294.854C91.7968 342.715 118.557 397.689 118.557 397.689C118.557 397.689 123.385 336.739 99.1023 294.854Z" fill="#397F5B"/>
<path d="M68.5576 305.747C76.2519 353.545 118.555 397.689 118.555 397.689C118.555 397.689 104.499 338.183 68.5576 305.747Z" fill="#2E4C3C"/>
<path d="M22.7236 355.625C58.0777 388.699 118.555 397.689 118.555 397.689C118.555 397.689 71.0026 359.255 22.7236 355.625Z" fill="#2E4C3C"/>
<path d="M141.29 295.531C115.677 336.617 118.555 397.689 118.555 397.689C118.555 397.689 147.06 343.601 141.29 295.531Z" fill="#2E4C3C"/>
<path d="M162.344 302.632C128.634 337.386 118.555 397.688 118.555 397.688C118.555 397.688 157.836 350.837 162.344 302.632Z" fill="#2E4C3C"/>
<path d="M216.17 359.947C167.775 361.421 118.555 397.689 118.555 397.689C118.555 397.689 179.371 391.412 216.17 359.947Z" fill="#2E4C3C"/>
<path d="M118.947 397.689C118.947 397.689 83.7034 393.717 62.1377 361.157C62.1367 361.156 93.7204 364.871 118.947 397.689Z" fill="#397F5B"/>
<path d="M118.458 397.689C118.458 397.689 153.699 393.717 175.262 361.157C175.262 361.156 143.683 364.871 118.458 397.689Z" fill="#397F5B"/>
<path d="M118.458 397.689C118.458 397.689 156.589 409.509 198.263 391.321C198.264 391.321 153.133 378.031 118.458 397.689Z" fill="#2E4C3C"/>
<path d="M118.284 397.689C118.284 397.689 80.1525 409.509 38.4766 391.321C38.4756 391.321 83.6095 378.031 118.284 397.689Z" fill="#2E4C3C"/>
<path d="M118.286 397.689C118.286 397.689 92.3394 400.499 82.8428 437.391C82.8428 437.391 114.278 425.196 118.286 397.689Z" fill="#2E4C3C"/>
<path d="M116.526 397.689C116.526 397.689 142.472 400.499 151.97 437.391C151.969 437.391 120.535 425.196 116.526 397.689Z" fill="#2E4C3C"/>
</svg>
