<svg width="310" height="437" viewBox="0 0 310 437" fill="none" xmlns="http://www.w3.org/2000/svg">
<path d="M86.9688 302.739C88.719 302.542 132.987 318.107 204.785 302.739C204.785 302.739 183.333 418.643 173.074 429.729C162.815 440.814 115.557 445.482 106.806 423.311C98.0542 401.141 86.9688 302.739 86.9688 302.739Z" fill="#FBB4B4"/>
<path d="M96.0775 336.61C96.5326 338.941 96.9938 341.074 99.2709 342.293C100.387 342.89 101.564 342.514 102.264 341.508C103.398 339.879 104.3 337.721 103.281 335.808C102.224 333.824 99.7837 333.426 97.7499 333.403C94.9267 333.37 94.9302 337.746 97.7499 337.778C98.422 337.786 98.7309 337.805 99.2052 337.918C99.3365 337.951 99.466 337.991 99.5938 338.038C99.361 337.936 99.3505 337.939 99.5632 338.047C99.7697 338.183 99.7505 338.165 99.5037 337.992C99.6665 338.167 99.6446 338.134 99.4363 337.891C99.3435 337.75 99.3496 337.407 99.3601 337.634C99.347 337.876 99.3558 337.849 99.3864 337.554C99.361 337.678 99.3295 337.798 99.291 337.918C99.2061 338.149 99.2026 338.17 99.2788 337.981C99.2114 338.123 99.1396 338.262 99.0626 338.4C98.8937 338.714 98.6898 339.008 98.4859 339.3C99.4836 339.039 100.481 338.777 101.479 338.515C101.329 338.441 101.184 338.358 101.043 338.266C101.18 338.381 101.157 338.356 100.973 338.188C100.799 337.996 100.789 337.985 100.942 338.151C100.614 337.656 101.033 338.511 100.827 337.93C100.544 337.139 100.456 336.269 100.296 335.447C100.067 334.276 98.6872 333.621 97.6046 333.919C96.3908 334.252 95.8491 335.44 96.0775 336.61Z" fill="#95652E"/>
<path d="M118.314 338.216C118.325 339.815 118.49 341.37 119.213 342.815C120.034 344.456 121.835 345.159 123.564 345.217C124.589 345.252 125.348 344.512 125.674 343.611C126.754 340.627 125.448 337.939 123.361 335.794C121.391 333.769 118.3 336.866 120.268 338.887C121.342 339.992 122.006 340.926 121.455 342.446C122.159 341.912 122.862 341.376 123.565 340.841C123.459 340.837 122.983 340.711 123.133 340.785C123.264 340.852 122.979 340.611 123.015 340.696C122.678 339.888 122.696 339.097 122.689 338.215C122.669 335.395 118.293 335.393 118.314 338.216Z" fill="#95652E"/>
<path d="M143.118 337.549C142.333 338.703 141.474 340.037 141.205 341.429C141.089 342.034 141.001 342.783 141.242 343.376C141.631 344.329 142.178 344.864 143.13 345.251C144.137 345.66 145.372 345.224 146.282 344.78C147.058 344.4 147.803 343.812 148.343 343.136C149.271 341.979 149.965 340.452 149.419 338.952C148.74 337.079 146.991 336.138 145.15 335.669C143.994 335.375 142.779 336.032 142.459 337.197C142.147 338.331 142.831 339.594 143.987 339.889C144.301 339.969 144.611 340.062 144.915 340.175C145.357 340.339 144.331 339.905 144.839 340.145C144.969 340.205 145.095 340.275 145.219 340.349C145.314 340.405 145.405 340.469 145.494 340.534C144.8 340.022 145.164 340.271 145.318 340.42C145.47 340.566 145.736 340.928 145.185 340.214C145.244 340.291 145.294 340.374 145.34 340.458C145.51 340.772 145.094 339.793 145.226 340.186C145.249 340.258 145.265 340.331 145.279 340.405C145.12 339.514 145.22 339.85 145.222 340.081C145.222 340.119 145.221 340.155 145.219 340.192C145.2 340.532 145.319 339.521 145.275 339.796C145.251 339.947 145.204 340.094 145.147 340.236C145.502 339.336 145.253 339.981 145.104 340.212C145.059 340.283 145.01 340.35 144.959 340.418C145.495 339.701 145.25 340.047 145.112 340.206C144.989 340.348 144.854 340.48 144.714 340.606C144.649 340.664 144.582 340.72 144.514 340.774C144.369 340.892 145.1 340.339 144.716 340.615C144.568 340.721 144.412 340.817 144.253 340.906C143.933 341.085 143.651 341.174 144.312 340.906C144.169 340.964 144.021 341.01 143.869 341.044C143.455 341.139 144.429 340.981 144.229 341.003C144.17 341.01 144.11 341.012 144.051 341.012C143.657 341.01 144.638 341.106 144.441 341.072C144.232 341.035 143.897 340.841 144.772 341.232C144.393 341.064 145.256 341.695 145.005 341.417C145.558 342.032 145.367 341.924 145.264 341.737C145.179 341.58 145.515 342.453 145.419 342.08C145.339 341.77 145.496 342.807 145.47 342.476C145.466 342.417 145.467 342.356 145.469 342.298C145.486 341.884 145.375 342.908 145.418 342.636C145.433 342.544 145.455 342.452 145.478 342.362C145.524 342.179 145.588 342.002 145.656 341.827C145.745 341.598 145.372 342.468 145.593 341.981C145.656 341.844 145.723 341.71 145.792 341.576C146.115 340.945 146.499 340.345 146.897 339.759C147.568 338.771 147.089 337.337 146.112 336.765C145.03 336.13 143.785 336.565 143.118 337.549Z" fill="#95652E"/>
<path d="M164.697 338.654C164.77 341.403 165.382 345.116 168.635 345.217C169.384 345.24 170.164 344.787 170.525 344.134C172.037 341.388 171.843 338.569 170.525 335.8C170.012 334.723 168.494 334.451 167.532 335.015C166.439 335.654 166.234 336.931 166.747 338.009C167.374 339.327 167.46 340.631 166.747 341.927C167.377 341.565 168.006 341.205 168.636 340.843C168.389 340.835 168.915 340.877 168.93 340.889C169.265 341.324 169.601 341.76 169.936 342.196C169.533 341.051 169.108 339.938 169.074 338.655C168.999 335.837 164.623 335.829 164.697 338.654Z" fill="#95652E"/>
<path d="M186.138 334.278C186.139 335.892 186.229 337.386 186.874 338.883C187.236 339.723 188.512 340.186 189.344 339.888C192.593 338.725 195.692 335.687 194.373 331.946C193.976 330.823 192.893 330.085 191.682 330.418C190.593 330.718 189.756 331.984 190.154 333.109C190.388 333.773 190.389 333.816 190.013 334.428C189.654 335.015 188.831 335.436 188.181 335.668C189.005 336.004 189.828 336.34 190.652 336.674C190.365 336.007 190.513 334.985 190.513 334.278C190.511 331.455 186.135 331.455 186.138 334.278Z" fill="#95652E"/>
<path d="M102.418 423.465C126.194 431.094 157.65 434.624 179.804 420.619C182.182 419.115 179.988 415.328 177.596 416.84C156.43 430.221 126.254 426.521 103.581 419.245C100.887 418.381 99.7421 422.606 102.418 423.465Z" fill="#95652E"/>
<path d="M96.6445 414.493C110.557 421.015 126.952 420.936 141.939 419.471C149.284 418.753 156.388 417.186 163.604 415.749C172.193 414.037 180.843 412.258 188.555 407.928C191.015 406.546 188.809 402.767 186.347 404.149C178.981 408.286 170.641 409.895 162.441 411.529C155.602 412.892 148.894 414.355 141.939 415.095C127.884 416.59 111.924 416.842 98.8525 410.713C96.3137 409.524 94.0908 413.296 96.6445 414.493Z" fill="#95652E"/>
<path d="M97.0767 404.961C107.761 414.774 125.466 413.703 138.838 412.507C155.234 411.038 172.258 408.558 186.367 399.616C188.742 398.11 186.549 394.321 184.159 395.837C170.943 404.214 155.299 406.442 139.981 408.022C127.745 409.283 110.035 410.926 100.17 401.869C98.0963 399.963 94.9939 403.049 97.0767 404.961Z" fill="#95652E"/>
<path d="M101.249 327.277C104.07 327.277 104.07 322.901 101.249 322.901C98.4274 322.901 98.4274 327.277 101.249 327.277Z" fill="#95652E"/>
<path d="M118.315 329.465C118.606 329.465 118.899 329.465 119.19 329.465C120.383 329.465 121.378 328.469 121.378 327.277C121.378 326.085 120.383 325.089 119.19 325.089C118.899 325.089 118.606 325.089 118.315 325.089C117.122 325.089 116.127 326.085 116.127 327.277C116.127 328.469 117.122 329.465 118.315 329.465Z" fill="#95652E"/>
<path d="M120.94 320.713C121.086 320.713 121.231 320.713 121.377 320.713C122.57 320.713 123.565 319.717 123.565 318.525C123.565 317.333 122.57 316.337 121.377 316.337C121.231 316.337 121.086 316.337 120.94 316.337C119.747 316.337 118.752 317.333 118.752 318.525C118.752 319.717 119.747 320.713 120.94 320.713Z" fill="#95652E"/>
<path d="M110.438 322.463C113.26 322.463 113.26 318.088 110.438 318.088C107.617 318.088 107.617 322.463 110.438 322.463Z" fill="#95652E"/>
<path d="M174.324 317.65C177.146 317.65 177.146 313.274 174.324 313.274C171.503 313.274 171.503 317.65 174.324 317.65Z" fill="#95652E"/>
<path d="M165.135 326.839C165.682 326.788 166.03 326.723 166.518 326.46C166.729 326.346 166.914 326.173 167.09 326.009C167.11 325.989 167.13 325.969 167.15 325.949C166.838 326.241 166.458 326.392 166.01 326.402C167.197 326.29 168.198 325.491 168.198 324.214C168.198 323.105 167.2 321.915 166.01 322.026C165.463 322.077 165.115 322.142 164.628 322.405C164.417 322.519 164.231 322.692 164.055 322.856C164.035 322.876 164.015 322.896 163.996 322.916C164.307 322.624 164.687 322.473 165.135 322.463C163.948 322.575 162.947 323.374 162.947 324.651C162.947 325.76 163.946 326.95 165.135 326.839Z" fill="#95652E"/>
<path d="M184.622 327.511C184.768 327.365 184.914 327.22 185.06 327.074C185.903 326.231 185.903 324.823 185.06 323.98C184.217 323.136 182.809 323.136 181.966 323.98C181.82 324.126 181.675 324.271 181.529 324.418C180.686 325.26 180.686 326.668 181.529 327.511C182.371 328.354 183.779 328.354 184.622 327.511Z" fill="#95652E"/>
<path d="M199.266 314.15C202.087 314.15 202.087 309.774 199.266 309.774C196.444 309.774 196.444 314.15 199.266 314.15Z" fill="#95652E"/>
<path d="M191.388 322.463C191.439 323.01 191.504 323.359 191.767 323.845C191.88 324.056 192.055 324.242 192.219 324.418C192.238 324.438 192.258 324.458 192.278 324.477C191.987 324.166 191.835 323.786 191.827 323.338C191.937 324.524 192.738 325.525 194.014 325.525C195.123 325.525 196.313 324.527 196.202 323.338C196.151 322.791 196.086 322.442 195.823 321.956C195.71 321.745 195.535 321.559 195.372 321.383C195.352 321.363 195.332 321.343 195.312 321.324C195.604 321.635 195.755 322.015 195.764 322.463C195.654 321.277 194.852 320.276 193.576 320.276C192.468 320.276 191.277 321.274 191.388 322.463Z" fill="#95652E"/>
<path d="M132.755 328.589C135.576 328.589 135.576 324.214 132.755 324.214C129.933 324.214 129.933 328.589 132.755 328.589Z" fill="#95652E"/>
<path d="M145.006 318.525C145.298 318.525 145.59 318.525 145.881 318.525C147.074 318.525 148.069 317.529 148.069 316.337C148.069 315.145 147.074 314.15 145.881 314.15C145.59 314.15 145.298 314.15 145.006 314.15C143.813 314.15 142.818 315.145 142.818 316.337C142.818 317.529 143.813 318.525 145.006 318.525Z" fill="#95652E"/>
<path d="M145.444 325.089C145.491 325.596 145.541 326.015 145.823 326.454C146.26 327.135 146.996 327.602 147.821 327.602C148.509 327.602 149.017 327.333 149.536 326.896C150.062 326.454 150.197 325.724 150.257 325.089C150.368 323.9 149.177 322.901 148.069 322.901C146.792 322.901 145.992 323.902 145.881 325.089C146.051 324.674 146.221 324.26 146.391 323.845C146.713 323.658 147.034 323.47 147.356 323.283C147.685 323.283 148.015 323.283 148.345 323.283C148.667 323.47 148.988 323.658 149.31 323.845C149.48 324.26 149.65 324.674 149.819 325.089C149.708 323.902 148.908 322.901 147.632 322.901C146.524 322.901 145.333 323.9 145.444 325.089Z" fill="#95652E"/>
<path d="M95.1229 314.15C97.9444 314.15 97.9444 309.774 95.1229 309.774C92.3015 309.774 92.3015 314.15 95.1229 314.15Z" fill="#95652E"/>
<path d="M180.871 217.345C180.871 217.345 184.621 213.102 189.45 198.765C194.279 184.432 196.598 183.453 200.461 178.093C204.324 172.736 205.774 170.531 208.186 167.187C210.599 163.844 215.961 161.679 214.194 157.301C212.428 152.921 213.347 150.134 215.412 146.489C217.479 142.844 226.178 142.514 226.731 133.992C227.283 125.472 229.789 121.2 232.174 118.47C234.559 115.741 237.422 113.567 236.615 109.38C235.808 105.194 235.223 97.6144 237.73 92.4266C240.237 87.2335 244.24 83.599 240.494 78.5888C236.749 73.5768 235.425 72.9415 236.895 66.8916C238.364 60.8444 238.829 56.508 238.463 52.268C238.097 48.0288 235.283 44.999 237.25 42.0113C239.217 39.0262 242.344 41.7155 244.507 36.2598C246.67 30.8033 246.491 29.2955 249.807 28.2925C253.121 27.2879 256.627 30.5452 257.322 25.8745C258.018 21.2039 264.411 19.8351 263.452 19.6443C262.493 19.4509 256.168 13.4711 252.996 15.6799C249.824 17.8906 249.093 22.2593 244.44 22.5026C239.788 22.7468 227.325 28.1989 226.772 34.0755C226.218 39.953 218.765 48.1758 215.865 50.0477C212.966 51.9205 210.801 57.3744 211.23 60.9932C211.658 64.6145 211.292 66.7989 207.162 68.8161C203.033 70.8333 198.419 79.3336 199.24 86.2708C200.06 93.2081 197.494 105.068 194.623 107.924C191.752 110.777 185.3 118.813 185.671 124.58C186.041 130.348 187.922 143.617 184.649 150.258C181.378 156.899 178.229 162.165 180.649 167.996C183.067 173.829 187.225 177.313 184.589 184.05C181.951 190.782 180.983 195.792 180.217 199.859C179.45 203.926 181.525 203.166 179.933 209.423C178.343 215.682 175.431 222.689 175.431 222.689C175.431 222.689 180.026 222.161 180.871 217.345Z" fill="#1A2D22"/>
<path d="M151.942 257.473C151.942 257.473 142.333 245.729 142.863 234.46C143.394 223.189 144.822 218.915 141.616 215.861C138.411 212.81 134.756 212.691 136.159 207.965C137.563 203.243 131.89 193.711 129.539 189.132C127.189 184.549 115.384 178.268 115.109 166.326C114.834 154.382 117.998 145.952 114.311 141.978C110.622 138.004 99.7198 130.583 99.4774 125.313C99.2368 120.044 103.09 110.758 106.66 106.179C110.229 101.599 113.673 92.1614 111.04 90.4356C108.409 88.7055 98.4071 83.5938 98.6504 73.6407C98.8954 63.686 105.436 53.9264 107.192 50.8852C108.948 47.8441 109.437 43.5857 106.76 41.8424C104.086 40.0982 102.627 38.0705 103.763 34.0562C104.9 30.0446 104.251 29.8013 101.333 28.7056C98.4141 27.6108 96.6314 22.5026 97.2817 19.7861C97.931 17.0697 100.04 13.4212 96.88 10.016C93.7181 6.60909 91.8838 0 91.8838 0C91.8838 0 104.948 8.23334 106.081 13.0991C107.215 17.9632 105.876 21.5312 110.376 24.329C114.875 27.1295 120.953 31.6321 121.359 35.4818C121.761 39.3325 119.895 45.2931 122.651 47.8065C125.407 50.3208 131.528 53.7277 131.567 58.5506C131.605 63.3779 125.348 76.197 127.887 78.2589C130.424 80.3233 136.139 88.7553 132.731 94.8761C129.324 100.999 120.078 110.846 125.306 114.658C130.535 118.471 141.885 119.772 141.397 126.989C140.908 134.202 139.96 142.485 138.1 148.012C136.24 153.538 139.913 163.467 144.275 168.6C148.639 173.733 153.746 174.909 151.758 184.151C149.768 193.395 147.63 194.906 151.717 201.387C155.803 207.87 159.816 211.964 158.557 219.263C157.298 226.558 156.567 231.463 155.673 237.786C154.779 244.113 154.619 250.341 153.28 253.91C151.942 257.473 152.585 261.786 152.585 261.786L151.942 257.473Z" fill="#2E4C3C"/>
<path d="M151.442 298.928C151.442 298.928 173.111 280.939 174.807 273.473C176.504 266.007 176.844 256.163 183.971 252.429C191.1 248.694 196.53 248.017 197.548 241.228C198.566 234.44 200.602 227.313 206.033 225.616C211.463 223.92 217.912 220.221 220.966 216.301C224.021 212.378 228.095 210.341 234.543 210.68C240.992 211.021 255.586 203.892 255.586 203.892C255.586 203.892 252.871 218.147 250.156 223.578C247.44 229.009 243.029 232.742 236.919 235.119C230.81 237.494 227.097 238.901 226.058 244.622C225.019 250.34 220.966 256.84 215.875 258.197C210.784 259.557 199.584 263.087 196.189 270.316C192.795 277.544 189.061 283.993 182.952 288.067C176.843 292.139 172.43 295.194 168.697 296.891C164.963 298.587 159.489 300.155 157.303 300.524C155.117 300.893 151.442 298.928 151.442 298.928Z" fill="#213A2C"/>
<path d="M178.203 297.231C178.203 297.231 182.503 297.005 197.209 291.123C211.918 285.24 226.172 281.846 237.261 283.882C248.349 285.918 253.779 293.571 253.779 294.271C253.779 294.971 249.253 294.291 242.692 297.232C236.129 300.174 220.971 302.789 215.991 301.709C211.013 300.627 209.202 301.421 202.188 300.572C195.174 299.722 195.626 297.685 188.838 298.929C182.05 300.173 178.203 297.231 178.203 297.231Z" fill="#213A2C"/>
<path d="M131.933 301.468C131.933 301.468 127.634 301.241 112.927 295.358C98.2182 289.477 83.9638 286.082 72.8749 288.117C61.7877 290.154 56.3574 297.806 56.3574 298.506C56.3574 299.206 60.8828 298.526 67.4446 301.469C74.0073 304.409 89.1657 307.025 94.1452 305.945C99.1231 304.863 100.934 305.657 107.948 304.807C114.962 303.958 114.51 301.921 121.298 303.165C128.087 304.408 131.933 301.468 131.933 301.468Z" fill="#255B3E"/>
<path d="M148.515 295.678C148.515 295.678 143.889 291.463 136.794 276.188C129.699 260.915 127.05 260.132 122.161 254.692C117.27 249.255 115.411 246.998 112.355 243.603C109.301 240.211 103.191 238.514 104.549 233.422C105.907 228.331 104.549 225.359 101.834 221.585C99.118 217.81 89.6148 218.586 87.9179 209.203C86.221 199.822 82.9462 195.409 80.0014 192.693C77.0574 189.978 73.6627 187.942 74.0031 183.19C74.3418 178.438 74.0031 169.953 70.6085 164.524C67.2147 159.092 62.3944 155.584 65.8223 149.532C69.2502 143.48 70.6085 142.599 68.2324 136.081C65.8564 129.562 64.7922 124.811 64.6461 120.059C64.4991 115.307 67.1683 111.576 64.6461 108.518C62.123 105.464 59.0679 108.858 56.0137 103.089C52.9594 97.3178 52.9594 95.6209 49.2252 94.9426C45.4918 94.2635 42.0971 98.3373 40.7407 93.2457C39.3833 88.155 32.2544 87.4741 33.2731 87.1372C34.2917 86.7968 40.4011 79.3309 44.1345 81.3656C47.8678 83.403 49.2252 88.155 54.3168 87.8146C59.4084 87.4741 73.6627 91.8884 75.0209 98.3373C76.3792 104.786 85.5428 112.932 88.9366 114.629C92.3304 116.326 95.3855 122.095 95.3855 126.168C95.3855 130.242 96.0646 132.617 100.816 134.314C105.568 136.011 111.678 144.836 111.678 152.643C111.678 160.449 115.995 173.272 119.484 176.063C122.974 178.853 131.025 186.924 131.364 193.373C131.703 199.822 131.364 214.793 135.776 221.731C140.188 228.671 144.289 234.1 142.408 240.889C140.528 247.678 136.454 252.09 140.188 259.218C143.922 266.345 145.62 271.776 146.976 276.188C148.333 280.602 145.978 280.029 148.515 286.764C151.049 293.499 155.117 300.893 155.117 300.893C155.117 300.893 150.051 300.911 148.515 295.678Z" fill="#2E4C3C"/>
<path d="M162.287 295.195C162.287 295.195 175.147 287.728 178.542 277.207C181.936 266.685 182.097 262.273 186.09 260.575C190.082 258.879 193.475 260.027 193.816 255.209C194.154 250.392 202.64 243.603 206.374 240.211C210.108 236.817 223.101 235.12 227.465 224.258C231.83 213.396 231.83 204.572 236.581 202.195C241.333 199.821 253.891 196.766 255.927 192.014C257.964 187.262 257.624 177.419 255.927 171.988C254.23 166.557 254.321 156.714 257.33 156.036C260.339 155.356 271.276 154.109 274.48 144.894C277.683 135.678 275.044 124.471 274.48 121.077C273.916 117.682 274.935 113.609 277.99 112.93C281.044 112.251 283.08 110.894 283.42 106.82C283.759 102.748 284.438 102.748 287.493 102.748C290.547 102.748 293.942 98.676 294.281 95.9595C294.62 93.244 293.942 89.1701 298.014 87.1354C302.088 85.099 306.047 79.6678 306.047 79.6678C306.047 79.6678 291.226 82.7221 288.511 86.7959C285.796 90.868 285.796 94.6022 280.704 95.62C275.613 96.6395 268.486 98.676 266.788 102.069C265.092 105.463 264.752 111.574 261.358 112.931C257.964 114.289 251.176 115.306 249.478 119.718C247.782 124.132 249.107 138.047 246.068 139.064C243.03 140.083 234.884 145.853 235.902 152.642C236.92 159.43 242.011 171.649 235.902 173.345C229.792 175.042 218.932 172.328 216.894 179.117C214.859 185.903 212.876 193.829 212.679 199.539C212.483 205.249 205.694 213.094 199.923 216.301C194.154 219.506 189.063 218.827 187.705 227.99C186.347 237.156 187.788 239.277 181.806 243.817C175.825 248.356 170.734 250.73 169.377 257.859C168.019 264.987 167.001 269.738 165.643 275.847C164.285 281.957 162.286 287.726 162.286 291.461C162.286 295.194 160.213 298.927 160.213 298.927L162.287 295.195Z" fill="#2E4C3C"/>
<path d="M151.711 287.577C151.711 287.577 149.552 273.041 150.257 266.947C150.962 260.856 152.725 252.817 150.605 247.428C148.485 242.037 146.416 234.7 147.051 228.612C147.685 222.525 147.046 209.732 146.446 205.115C145.846 200.498 144.55 192.246 143.492 188.52C142.435 184.795 148.436 180.458 144.262 174.133C140.088 167.811 139.504 159.218 139.806 153.441C140.108 147.664 141.267 145.855 141.002 138.969C140.736 132.08 137.589 124.534 140.59 122.019C143.592 119.505 148.609 117.139 148.405 114.275C148.202 111.412 146.559 106.635 149.767 104.107C152.976 101.578 155.573 101.684 154.064 96.6089C152.556 91.5365 152.503 82.6197 154.898 79.8604C157.294 77.1028 167.875 74.9176 171.252 70.3642C174.627 65.8082 183.637 54.8129 186.214 54.6317C188.791 54.4497 187.13 59.4599 188.743 61.9366C190.357 64.4115 197.988 82.8674 195.673 86.7696C193.358 90.6736 185.148 100.75 186.163 107.008C187.181 113.268 190.375 121.866 188.237 128.251C186.097 134.639 182.999 143.777 185.735 149.916C188.469 156.055 189.872 163.723 184.957 171.553C180.041 179.383 177.585 181.281 177.638 190.198C177.69 199.115 176.703 205.516 172.952 213.551C169.202 221.585 165.948 224.403 166 233.32C166.053 242.236 166.635 254.57 163.788 259.087C160.94 263.603 160.001 262.52 157.747 267.282C155.492 272.045 154.475 277.296 154.592 279.302C154.707 281.309 155.238 288.482 155.296 289.295C155.351 290.106 151.711 287.577 151.711 287.577Z" fill="#255B3E"/>
<path d="M148.883 296.659C148.883 296.659 141.094 276.188 139.283 265.327C137.473 254.466 128.422 218.262 128.422 213.283C128.422 208.307 123.897 193.373 123.444 185.226C122.991 177.08 121.634 168.934 123.444 163.956C125.254 158.978 126.159 147.212 127.97 143.591C129.78 139.971 133.034 146.759 135.706 151.284C138.378 155.809 140.188 166.219 142.451 170.743C144.713 175.269 148.525 186.129 148.883 192.014C149.24 197.897 151.276 205.59 154.783 209.664C158.29 213.736 165.274 218.434 160.877 223.779C156.479 229.123 151.276 235.485 154.783 241.58C158.29 247.677 156.932 247.353 158.29 255.208C159.647 263.065 150.824 265.326 154.783 273.472C158.743 281.618 156.932 288.605 156.932 288.605C156.932 288.605 151.502 289.071 151.502 296.657C151.503 304.247 150.11 299.977 148.883 296.659Z" fill="#397F5B"/>
<path d="M154.784 301.708C154.784 301.708 158.487 293.693 154.784 288.794C151.081 283.894 146.629 274.543 150.191 266.973C153.753 259.404 154.676 252.277 152.657 246.935C150.637 241.591 154.207 242.926 156.43 240.256C158.652 237.583 160.878 227.342 160.878 223.78C160.878 220.216 159.544 215.318 163.996 213.983C168.448 212.647 175.573 205.967 175.573 202.405C175.573 198.843 172.456 188.601 175.573 185.93C178.69 183.257 186.26 181.922 188.042 179.695C189.824 177.468 222.775 155.649 225.002 152.085C227.228 148.523 242.815 132.047 246.823 132.047C250.831 132.047 255.283 135.164 258.846 134.72C262.408 134.274 267.752 128.485 272.206 132.047C276.657 135.609 281.556 138.282 292.244 140.063C302.931 141.843 304.267 147.632 305.158 151.195C306.048 154.757 306.048 154.757 306.048 154.757C306.048 154.757 300.706 149.413 294.916 148.968C289.127 148.523 278.886 150.75 276.213 146.743C273.541 142.733 265.526 140.509 262.853 141.399C260.182 142.29 259.291 148.079 252.611 149.861C245.932 151.641 240.143 152.533 236.581 156.095C233.017 159.657 225.893 159.657 224.557 160.548C223.221 161.438 222.777 168.116 222.33 178.361C221.885 188.602 221.44 194.39 211.644 200.18C201.848 205.97 195.167 210.605 193.386 216.302C191.604 222 187.598 223.335 184.925 229.124C182.253 234.913 184.481 234.024 181.808 243.82C179.135 253.617 173.792 256.287 172.011 261.632C170.229 266.976 166.223 272.319 166.668 277.219C167.113 282.118 160.433 284.343 160.433 288.352C160.433 292.359 156.87 301.711 156.87 301.711H154.784V301.708Z" fill="#213A2C"/>
<path d="M252.61 149.86C259.289 148.078 260.18 142.289 262.851 141.398C265.524 140.508 273.539 142.732 276.211 146.742C278.883 150.749 289.125 148.522 294.915 148.967C300.704 149.412 306.047 154.756 306.047 154.756C306.047 154.756 306.047 154.756 305.157 151.194C304.266 147.632 302.929 141.842 292.242 140.062C281.555 138.281 276.656 135.608 272.204 132.046C267.751 128.484 262.408 134.273 258.844 134.719C255.281 135.163 250.829 132.046 246.821 132.046C242.814 132.046 227.227 148.522 225.001 152.084C222.773 155.648 189.821 177.467 188.041 179.694C187.643 180.189 186.948 180.64 186.09 181.073C186.09 181.075 186.09 181.08 186.09 181.08C186.09 181.08 195.399 181.605 197.662 180.248C199.925 178.891 204.45 175.723 207.166 176.627C209.881 177.533 216.216 172.556 218.932 165.313C221.647 158.074 224.557 160.546 224.557 160.546C225.892 159.655 233.017 159.655 236.58 156.093C240.142 152.531 245.93 151.64 252.61 149.86Z" fill="#255B3E"/>
<path d="M148.883 298.816C148.883 298.816 137.473 289.765 134.305 280.262C131.137 270.759 122.521 259.897 122.529 256.729C122.539 253.561 116.656 241.173 114.846 232.207C113.035 223.24 113.487 217.357 110.32 212.832C107.152 208.307 103.08 200.612 103.08 195.634C103.08 190.656 99.4588 184.375 93.1237 181.178C86.7876 177.985 83.1671 172.909 79.5475 167.753C75.9271 162.598 75.0213 153.095 71.4017 151.738C67.7813 150.38 58.7305 145.853 49.6789 147.211C40.6281 148.57 34.2921 144.71 31.1241 142.565C27.9561 140.424 18.9053 146.306 17.548 146.759C16.1906 147.211 12.1177 152.188 9.40215 156.036C6.68658 159.884 8.49726 142.685 23.4307 137.256C38.365 131.825 80.0009 145.754 99.9122 167.753C119.824 189.751 117.897 194.136 122.529 199.708C127.162 205.278 128.894 219.097 130.695 225.919C132.496 232.743 130.233 233.649 133.853 242.699C137.473 251.75 142.904 263.745 144.714 272.682C146.525 281.619 145.62 288.622 150.145 296.658C154.671 304.7 148.883 298.816 148.883 298.816Z" fill="#213A2C"/>
<path d="M126.835 209.203C124.984 214.981 128.97 220.62 129.699 221.585C128.904 217.827 128.025 213.315 126.835 209.203Z" fill="#397F5B"/>
<path d="M83.6196 161.695C87.2392 166.22 89.0507 168.482 93.5761 172.103C98.0997 175.724 98.5539 183.081 100.658 188.037C101.005 188.589 101.326 189.151 101.6 189.718C103.835 192.766 107.362 192.196 111.678 193.374C114.525 194.151 119.736 197.145 123.298 200.751C123.051 200.378 122.796 200.029 122.529 199.71C117.897 194.138 119.824 189.753 99.9121 167.755C80.0009 145.756 38.365 131.826 23.4307 137.258C8.49726 142.687 6.68658 159.885 9.40215 156.038C12.1177 152.191 16.1906 147.212 17.548 146.761C18.9053 146.307 27.9569 140.426 31.1241 142.567C34.2921 144.711 40.6273 148.571 49.6789 147.212C58.7305 145.855 67.7813 150.382 71.4017 151.739C71.7842 151.883 72.1333 152.122 72.4624 152.431C74.8725 154.034 80.7789 158.143 83.6196 161.695Z" fill="#397F5B"/>
<path d="M143.922 301.708C143.922 301.708 103.192 258.931 88.9364 248.891C74.6812 238.851 68.5709 238.174 61.7842 235.459C54.9957 232.743 61.106 227.651 57.7113 223.579C54.3175 219.507 50.9228 216.449 46.5112 218.486C42.0987 220.525 40.4018 223.579 37.3467 219.846C34.2924 216.113 32.2551 210.781 29.5413 209.203C26.8248 207.627 22.4132 207.726 20.0381 209.203C17.6612 210.681 15.6256 207.726 13.2496 209.203C10.8736 210.681 8.3479 213.737 8.3479 213.737C8.3479 213.737 7.85956 209.847 8.3479 208.059C8.83623 206.271 9.85491 203.036 10.8736 200.75C11.8922 198.464 16.9829 199.981 19.359 200.75C21.7341 201.519 26.8257 204.233 30.2204 202.877C33.6142 201.519 41.4205 207.628 46.5121 205.591C51.6028 203.554 57.7121 207.727 60.7673 209.204C63.8224 210.682 67.8953 210.442 70.2705 209.204C72.6465 207.968 79.0936 212.076 80.1123 216.302C81.1319 220.526 86.2226 225.617 89.9568 223.92C93.6902 222.224 95.7275 226.295 95.7275 229.689C95.7275 233.084 99.1205 247.731 104.891 248.892C110.661 250.053 113.037 244.745 118.807 250.624C124.578 256.502 122.606 258.539 129.701 260.916C136.795 263.291 137.814 264.649 139.51 274.154C141.207 283.657 142.54 290.739 146.625 296.871C150.71 303.004 151.875 301.709 151.875 301.709H143.922V301.708Z" fill="#397F5B"/>
<path d="M156.871 301.708C156.871 301.708 172.934 301.643 186.091 288.745C199.247 275.848 205.017 266.33 208.071 267.185C211.125 268.042 225.042 272.672 234.545 267.132C244.049 261.592 242.659 253.445 246.069 253.108C249.479 252.769 248.801 246.216 253.891 250.679C258.981 255.144 263.733 252.666 266.45 250.679C269.165 248.694 275.274 250.392 279.007 252.77C282.742 255.144 286.814 255.484 292.245 254.127C297.676 252.77 299.032 256.501 303.784 258.879C308.537 261.256 309.554 260.915 309.554 259.219C309.554 257.522 304.124 249.766 300.052 248.892C295.979 248.018 289.87 247.338 286.135 244.624C282.402 241.909 272.899 236.817 267.129 239.872C261.358 242.926 252.534 245.98 247.782 246.321C243.031 246.66 235.954 248.931 233.213 250.679C230.472 252.429 230.133 249.272 222.326 250.679C214.521 252.089 209.429 253.108 201.623 260.235C193.816 267.364 194.286 270.066 186.091 274.49C177.894 278.916 174.808 277.544 170.397 284.333C165.984 291.122 161.573 299.395 154.784 301.708" fill="#213A2C"/>
<path d="M146.977 301.044C146.977 301.044 137.133 300.286 121.181 298.928C105.229 297.571 95.3852 282.296 87.5798 282.976C79.7726 283.655 77.7361 284.672 76.0392 280.601C74.3423 276.527 72.5772 273.472 65.8228 276.187C59.0685 278.903 51.6017 285.69 43.7954 281.618C35.9892 277.544 33.6131 272.116 29.5402 272.793C25.4673 273.472 23.7695 274.714 19.6966 272.736C15.6237 270.757 15.2841 267.839 10.5321 270.316C5.78007 272.793 0.349792 272.793 0.0102359 271.775C-0.328445 270.757 7.81741 263.969 12.5694 263.969C17.3215 263.969 20.7153 264.646 23.43 261.254C26.1455 257.859 29.6811 254.465 33.1738 256.163C36.6665 257.86 41.759 257.296 44.8132 255.711C47.8675 254.125 52.6195 248.64 54.3164 252.23C56.0133 255.822 62.0545 257.859 65.8219 256.162C69.5894 254.464 79.0926 254.125 83.506 260.914C87.9185 267.702 101.155 274.532 105.907 276.038C110.658 277.543 110.32 277.883 115.41 282.975C120.502 288.066 139.483 296.168 146.624 296.868C153.765 297.572 146.977 301.044 146.977 301.044Z" fill="#213A2C"/>
<path d="M163.189 300.895C163.189 300.895 178.429 293.838 186.348 294.291C194.268 294.743 200.768 301.758 203.514 310.809C206.26 319.86 203.709 321.67 203.514 325.518C203.319 329.363 201.508 330.043 200.604 329.815C199.698 329.589 193.136 324.611 192.005 320.766C190.874 316.918 186.122 318.049 182.501 313.75C178.881 309.452 177.523 308.772 175.714 306.51C173.903 304.247 169.152 304.925 165.984 304.247C162.816 303.566 163.189 300.895 163.189 300.895Z" fill="#2E4C3C"/>
<path d="M137.247 297.685C137.247 297.685 124.335 296.965 115.978 295.648C107.621 294.331 101.27 295.875 97.197 302.889C93.1241 309.903 93.5766 313.977 88.373 317.598C83.1694 321.217 82.4902 324.838 82.4902 326.875C82.4902 328.912 87.6939 326.875 89.2779 326.875C90.8619 326.875 97.8761 324.611 98.5552 320.991C99.2335 317.371 100.593 314.201 107.154 315.335C113.717 316.465 118.025 316.692 120.278 313.75C122.532 310.809 124.687 311.035 128.027 308.092C131.364 305.151 135.89 299.495 137.247 297.685Z" fill="#213A2C"/>
<path d="M154.074 298.928C154.074 298.928 146.867 303.134 139.002 300.409C131.138 297.684 126.84 296.1 124.576 298.928C122.313 301.758 118.467 306.735 118.013 308.092C117.561 309.452 120.936 311.262 122.529 310.808C124.123 310.355 125.409 311.262 126.349 314.427C127.29 317.597 127.517 321.216 133.626 322.574C139.734 323.934 140.554 323.253 142.407 327.553C144.26 331.852 151.442 331.852 151.442 331.852C151.442 331.852 152.18 326.194 154.782 325.743C157.385 325.29 161.304 325.517 162.286 320.766C163.267 316.014 161.909 317.122 165.983 314.645C170.056 312.167 171.413 311.489 171.866 306.962C172.319 302.437 172.605 300.349 172.997 298.929C173.39 297.511 172.093 295.648 170.283 295.648C168.472 295.648 161.523 300.988 154.074 298.928Z" fill="#397F5B"/>
</svg>
